<mxfile host="app.diagrams.net" modified="2023-10-20T19:48:35.730Z" agent="Mozilla/5.0 (X11; Linux x86_64; rv:109.0) Gecko/20100101 Firefox/112.0" etag="BcMzTCQAWNkb_7Q60Dh9" version="22.0.0" type="github" pages="2">
  <diagram id="prtHgNgQTEPvFCAcTncT" name="DiagramaAtividades">
    <mxGraphModel dx="880" dy="478" grid="1" gridSize="10" guides="1" tooltips="1" connect="1" arrows="1" fold="1" page="1" pageScale="1" pageWidth="827" pageHeight="1169" math="0" shadow="0">
      <root>
        <mxCell id="0" />
        <mxCell id="1" parent="0" />
        <mxCell id="-PiYgMaSnoU5pojzZ2rZ-32" value="Cliente" style="swimlane;whiteSpace=wrap;html=1;" parent="1" vertex="1">
          <mxGeometry x="50" y="70" width="280" height="490" as="geometry" />
        </mxCell>
        <mxCell id="-PiYgMaSnoU5pojzZ2rZ-39" value="" style="edgeStyle=orthogonalEdgeStyle;rounded=0;orthogonalLoop=1;jettySize=auto;html=1;" parent="-PiYgMaSnoU5pojzZ2rZ-32" source="-PiYgMaSnoU5pojzZ2rZ-35" target="-PiYgMaSnoU5pojzZ2rZ-38" edge="1">
          <mxGeometry relative="1" as="geometry" />
        </mxCell>
        <mxCell id="-PiYgMaSnoU5pojzZ2rZ-35" value="" style="ellipse;fillColor=strokeColor;html=1;" parent="-PiYgMaSnoU5pojzZ2rZ-32" vertex="1">
          <mxGeometry x="20" y="80" width="30" height="30" as="geometry" />
        </mxCell>
        <mxCell id="-PiYgMaSnoU5pojzZ2rZ-38" value="Solicita Projeto" style="ellipse;whiteSpace=wrap;html=1;" parent="-PiYgMaSnoU5pojzZ2rZ-32" vertex="1">
          <mxGeometry x="105" y="55" width="80" height="80" as="geometry" />
        </mxCell>
        <mxCell id="-PiYgMaSnoU5pojzZ2rZ-33" value="Arquiteta" style="swimlane;whiteSpace=wrap;html=1;" parent="1" vertex="1">
          <mxGeometry x="330" y="70" width="1100" height="490" as="geometry" />
        </mxCell>
        <mxCell id="-PiYgMaSnoU5pojzZ2rZ-43" value="" style="edgeStyle=orthogonalEdgeStyle;rounded=0;orthogonalLoop=1;jettySize=auto;html=1;" parent="-PiYgMaSnoU5pojzZ2rZ-33" source="-PiYgMaSnoU5pojzZ2rZ-40" edge="1">
          <mxGeometry relative="1" as="geometry">
            <mxPoint x="173.99999999999977" y="95" as="targetPoint" />
          </mxGeometry>
        </mxCell>
        <mxCell id="-PiYgMaSnoU5pojzZ2rZ-40" value="Pesquisar Cliente" style="ellipse;whiteSpace=wrap;html=1;" parent="-PiYgMaSnoU5pojzZ2rZ-33" vertex="1">
          <mxGeometry x="14" y="55" width="80" height="80" as="geometry" />
        </mxCell>
        <mxCell id="-PiYgMaSnoU5pojzZ2rZ-47" value="Cliente Já Existe" style="edgeStyle=orthogonalEdgeStyle;rounded=0;orthogonalLoop=1;jettySize=auto;html=1;" parent="-PiYgMaSnoU5pojzZ2rZ-33" source="-PiYgMaSnoU5pojzZ2rZ-44" target="-PiYgMaSnoU5pojzZ2rZ-46" edge="1">
          <mxGeometry relative="1" as="geometry" />
        </mxCell>
        <mxCell id="-PiYgMaSnoU5pojzZ2rZ-49" value="Cliente Não Existe " style="edgeStyle=orthogonalEdgeStyle;rounded=0;orthogonalLoop=1;jettySize=auto;html=1;" parent="-PiYgMaSnoU5pojzZ2rZ-33" source="-PiYgMaSnoU5pojzZ2rZ-44" target="-PiYgMaSnoU5pojzZ2rZ-48" edge="1">
          <mxGeometry relative="1" as="geometry" />
        </mxCell>
        <mxCell id="-PiYgMaSnoU5pojzZ2rZ-44" value="" style="rhombus;whiteSpace=wrap;html=1;" parent="-PiYgMaSnoU5pojzZ2rZ-33" vertex="1">
          <mxGeometry x="180" y="55" width="80" height="80" as="geometry" />
        </mxCell>
        <mxCell id="vSkzQTMTQYVsFEDfIOOg-2" value="" style="edgeStyle=orthogonalEdgeStyle;rounded=0;orthogonalLoop=1;jettySize=auto;html=1;" edge="1" parent="-PiYgMaSnoU5pojzZ2rZ-33" source="-PiYgMaSnoU5pojzZ2rZ-46" target="vSkzQTMTQYVsFEDfIOOg-1">
          <mxGeometry relative="1" as="geometry" />
        </mxCell>
        <mxCell id="-PiYgMaSnoU5pojzZ2rZ-46" value="Selecionar Cliente" style="ellipse;whiteSpace=wrap;html=1;" parent="-PiYgMaSnoU5pojzZ2rZ-33" vertex="1">
          <mxGeometry x="180" y="200" width="80" height="80" as="geometry" />
        </mxCell>
        <mxCell id="-PiYgMaSnoU5pojzZ2rZ-51" value="" style="edgeStyle=orthogonalEdgeStyle;rounded=0;orthogonalLoop=1;jettySize=auto;html=1;" parent="-PiYgMaSnoU5pojzZ2rZ-33" source="-PiYgMaSnoU5pojzZ2rZ-48" target="-PiYgMaSnoU5pojzZ2rZ-50" edge="1">
          <mxGeometry relative="1" as="geometry" />
        </mxCell>
        <mxCell id="-PiYgMaSnoU5pojzZ2rZ-48" value="Cadastrar Cliente" style="ellipse;whiteSpace=wrap;html=1;" parent="-PiYgMaSnoU5pojzZ2rZ-33" vertex="1">
          <mxGeometry x="390" y="55" width="80" height="80" as="geometry" />
        </mxCell>
        <mxCell id="-PiYgMaSnoU5pojzZ2rZ-53" value="" style="edgeStyle=orthogonalEdgeStyle;rounded=0;orthogonalLoop=1;jettySize=auto;html=1;entryX=0;entryY=0.5;entryDx=0;entryDy=0;" parent="-PiYgMaSnoU5pojzZ2rZ-33" target="-PiYgMaSnoU5pojzZ2rZ-54" edge="1">
          <mxGeometry relative="1" as="geometry">
            <mxPoint x="620" y="110" as="sourcePoint" />
            <mxPoint x="740" y="270" as="targetPoint" />
            <Array as="points">
              <mxPoint x="620" y="255" />
            </Array>
          </mxGeometry>
        </mxCell>
        <mxCell id="-PiYgMaSnoU5pojzZ2rZ-50" value="Coletar Informações" style="ellipse;whiteSpace=wrap;html=1;" parent="-PiYgMaSnoU5pojzZ2rZ-33" vertex="1">
          <mxGeometry x="550" y="55" width="80" height="80" as="geometry" />
        </mxCell>
        <mxCell id="-PiYgMaSnoU5pojzZ2rZ-57" value="Não" style="edgeStyle=orthogonalEdgeStyle;rounded=0;orthogonalLoop=1;jettySize=auto;html=1;entryX=0.5;entryY=0;entryDx=0;entryDy=0;" parent="-PiYgMaSnoU5pojzZ2rZ-33" source="-PiYgMaSnoU5pojzZ2rZ-54" target="-PiYgMaSnoU5pojzZ2rZ-56" edge="1">
          <mxGeometry relative="1" as="geometry">
            <Array as="points">
              <mxPoint x="790" y="350" />
              <mxPoint x="570" y="350" />
            </Array>
          </mxGeometry>
        </mxCell>
        <mxCell id="-PiYgMaSnoU5pojzZ2rZ-54" value="Validar Dados" style="rhombus;whiteSpace=wrap;html=1;" parent="-PiYgMaSnoU5pojzZ2rZ-33" vertex="1">
          <mxGeometry x="750" y="215" width="80" height="80" as="geometry" />
        </mxCell>
        <mxCell id="JR9yNRKIPoq3MmrtazAy-1" style="edgeStyle=orthogonalEdgeStyle;rounded=0;orthogonalLoop=1;jettySize=auto;html=1;entryX=0;entryY=1;entryDx=0;entryDy=0;dashed=1;" parent="-PiYgMaSnoU5pojzZ2rZ-33" source="-PiYgMaSnoU5pojzZ2rZ-56" target="-PiYgMaSnoU5pojzZ2rZ-50" edge="1">
          <mxGeometry relative="1" as="geometry">
            <Array as="points">
              <mxPoint x="500" y="415" />
              <mxPoint x="500" y="123" />
            </Array>
          </mxGeometry>
        </mxCell>
        <mxCell id="-PiYgMaSnoU5pojzZ2rZ-56" value="Notificar Erro" style="ellipse;whiteSpace=wrap;html=1;" parent="-PiYgMaSnoU5pojzZ2rZ-33" vertex="1">
          <mxGeometry x="530" y="375" width="80" height="80" as="geometry" />
        </mxCell>
        <mxCell id="-PiYgMaSnoU5pojzZ2rZ-58" value="Criar Registro" style="ellipse;whiteSpace=wrap;html=1;" parent="-PiYgMaSnoU5pojzZ2rZ-33" vertex="1">
          <mxGeometry x="950" y="215" width="80" height="80" as="geometry" />
        </mxCell>
        <mxCell id="-PiYgMaSnoU5pojzZ2rZ-59" value="Sim" style="edgeStyle=orthogonalEdgeStyle;rounded=0;orthogonalLoop=1;jettySize=auto;html=1;" parent="-PiYgMaSnoU5pojzZ2rZ-33" source="-PiYgMaSnoU5pojzZ2rZ-54" target="-PiYgMaSnoU5pojzZ2rZ-58" edge="1">
          <mxGeometry relative="1" as="geometry" />
        </mxCell>
        <mxCell id="-PiYgMaSnoU5pojzZ2rZ-65" style="edgeStyle=orthogonalEdgeStyle;rounded=0;orthogonalLoop=1;jettySize=auto;html=1;" parent="-PiYgMaSnoU5pojzZ2rZ-33" source="-PiYgMaSnoU5pojzZ2rZ-60" target="-PiYgMaSnoU5pojzZ2rZ-62" edge="1">
          <mxGeometry relative="1" as="geometry" />
        </mxCell>
        <mxCell id="-PiYgMaSnoU5pojzZ2rZ-60" value="Finalizar Cadastro" style="ellipse;whiteSpace=wrap;html=1;" parent="-PiYgMaSnoU5pojzZ2rZ-33" vertex="1">
          <mxGeometry x="950" y="375" width="80" height="80" as="geometry" />
        </mxCell>
        <mxCell id="-PiYgMaSnoU5pojzZ2rZ-61" value="" style="edgeStyle=orthogonalEdgeStyle;rounded=0;orthogonalLoop=1;jettySize=auto;html=1;" parent="-PiYgMaSnoU5pojzZ2rZ-33" source="-PiYgMaSnoU5pojzZ2rZ-58" target="-PiYgMaSnoU5pojzZ2rZ-60" edge="1">
          <mxGeometry relative="1" as="geometry" />
        </mxCell>
        <mxCell id="-PiYgMaSnoU5pojzZ2rZ-62" value="" style="ellipse;html=1;shape=endState;fillColor=strokeColor;" parent="-PiYgMaSnoU5pojzZ2rZ-33" vertex="1">
          <mxGeometry x="700" y="400" width="30" height="30" as="geometry" />
        </mxCell>
        <mxCell id="vSkzQTMTQYVsFEDfIOOg-3" style="edgeStyle=orthogonalEdgeStyle;rounded=0;orthogonalLoop=1;jettySize=auto;html=1;entryX=0.5;entryY=1;entryDx=0;entryDy=0;exitX=0.5;exitY=1;exitDx=0;exitDy=0;" edge="1" parent="-PiYgMaSnoU5pojzZ2rZ-33" source="vSkzQTMTQYVsFEDfIOOg-1" target="-PiYgMaSnoU5pojzZ2rZ-62">
          <mxGeometry relative="1" as="geometry" />
        </mxCell>
        <mxCell id="vSkzQTMTQYVsFEDfIOOg-1" value="Atualizar Dados" style="ellipse;whiteSpace=wrap;html=1;" vertex="1" parent="-PiYgMaSnoU5pojzZ2rZ-33">
          <mxGeometry x="180" y="360" width="80" height="80" as="geometry" />
        </mxCell>
        <mxCell id="-PiYgMaSnoU5pojzZ2rZ-41" value="" style="edgeStyle=orthogonalEdgeStyle;rounded=0;orthogonalLoop=1;jettySize=auto;html=1;" parent="1" source="-PiYgMaSnoU5pojzZ2rZ-38" target="-PiYgMaSnoU5pojzZ2rZ-40" edge="1">
          <mxGeometry relative="1" as="geometry" />
        </mxCell>
      </root>
    </mxGraphModel>
  </diagram>
  <diagram id="9qhlFi7XzIpsKEu4MnxF" name="DiagramaSequência">
    <mxGraphModel dx="1035" dy="562" grid="1" gridSize="10" guides="1" tooltips="1" connect="1" arrows="1" fold="1" page="1" pageScale="1" pageWidth="850" pageHeight="1100" math="0" shadow="0">
      <root>
        <mxCell id="0" />
        <mxCell id="1" parent="0" />
        <mxCell id="YoBtBIYt0NpNKVLae2Ce-5" value="Arquiteta" style="shape=umlLifeline;perimeter=lifelinePerimeter;whiteSpace=wrap;html=1;container=1;dropTarget=0;collapsible=0;recursiveResize=0;outlineConnect=0;portConstraint=eastwest;newEdgeStyle={&quot;curved&quot;:0,&quot;rounded&quot;:0};" parent="1" vertex="1">
          <mxGeometry x="80" y="240" width="100" height="440" as="geometry" />
        </mxCell>
        <mxCell id="YoBtBIYt0NpNKVLae2Ce-6" value="Sistema" style="shape=umlLifeline;perimeter=lifelinePerimeter;whiteSpace=wrap;html=1;container=1;dropTarget=0;collapsible=0;recursiveResize=0;outlineConnect=0;portConstraint=eastwest;newEdgeStyle={&quot;curved&quot;:0,&quot;rounded&quot;:0};" parent="1" vertex="1">
          <mxGeometry x="375" y="240" width="100" height="440" as="geometry" />
        </mxCell>
        <mxCell id="YoBtBIYt0NpNKVLae2Ce-7" value="Banco de Dados" style="shape=umlLifeline;perimeter=lifelinePerimeter;whiteSpace=wrap;html=1;container=1;dropTarget=0;collapsible=0;recursiveResize=0;outlineConnect=0;portConstraint=eastwest;newEdgeStyle={&quot;curved&quot;:0,&quot;rounded&quot;:0};" parent="1" vertex="1">
          <mxGeometry x="690" y="240" width="100" height="440" as="geometry" />
        </mxCell>
        <mxCell id="JeP-QaO6aETw0RSEIs47-1" value="Pessoa" style="shape=umlLifeline;perimeter=lifelinePerimeter;whiteSpace=wrap;html=1;container=1;dropTarget=0;collapsible=0;recursiveResize=0;outlineConnect=0;portConstraint=eastwest;newEdgeStyle={&quot;curved&quot;:0,&quot;rounded&quot;:0};" vertex="1" parent="1">
          <mxGeometry x="1010" y="240" width="100" height="440" as="geometry" />
        </mxCell>
        <mxCell id="JeP-QaO6aETw0RSEIs47-2" value="" style="rounded=0;whiteSpace=wrap;html=1;rotation=90;" vertex="1" parent="1">
          <mxGeometry x="362.5" y="357.5" width="125" height="20" as="geometry" />
        </mxCell>
        <mxCell id="JeP-QaO6aETw0RSEIs47-3" value="" style="rounded=0;whiteSpace=wrap;html=1;rotation=90;" vertex="1" parent="1">
          <mxGeometry x="67.5" y="357.5" width="125" height="20" as="geometry" />
        </mxCell>
        <mxCell id="JeP-QaO6aETw0RSEIs47-5" value="1: solicitaCadastroCliente" style="html=1;verticalAlign=bottom;startArrow=oval;startFill=1;endArrow=block;startSize=8;curved=0;rounded=0;exitX=0;exitY=0;exitDx=0;exitDy=0;entryX=0;entryY=1;entryDx=0;entryDy=0;" edge="1" parent="1" source="JeP-QaO6aETw0RSEIs47-3" target="JeP-QaO6aETw0RSEIs47-2">
          <mxGeometry width="60" relative="1" as="geometry">
            <mxPoint x="250" y="470" as="sourcePoint" />
            <mxPoint x="310" y="470" as="targetPoint" />
          </mxGeometry>
        </mxCell>
        <mxCell id="JeP-QaO6aETw0RSEIs47-7" value="" style="rounded=0;whiteSpace=wrap;html=1;rotation=90;" vertex="1" parent="1">
          <mxGeometry x="677.5" y="357.5" width="125" height="20" as="geometry" />
        </mxCell>
        <mxCell id="JeP-QaO6aETw0RSEIs47-8" value="2: consultarCPF(dados)" style="html=1;verticalAlign=bottom;endArrow=block;curved=0;rounded=0;exitX=0;exitY=0;exitDx=0;exitDy=0;entryX=0;entryY=1;entryDx=0;entryDy=0;" edge="1" parent="1" source="JeP-QaO6aETw0RSEIs47-2" target="JeP-QaO6aETw0RSEIs47-7">
          <mxGeometry width="80" relative="1" as="geometry">
            <mxPoint x="570" y="470" as="sourcePoint" />
            <mxPoint x="650" y="470" as="targetPoint" />
          </mxGeometry>
        </mxCell>
        <mxCell id="JeP-QaO6aETw0RSEIs47-9" value="3: [se existir] retornaDados(dados)" style="html=1;verticalAlign=bottom;endArrow=open;dashed=1;endSize=8;curved=0;rounded=0;exitX=0.392;exitY=1.15;exitDx=0;exitDy=0;exitPerimeter=0;" edge="1" parent="1">
          <mxGeometry relative="1" as="geometry">
            <mxPoint x="727" y="350" as="sourcePoint" />
            <mxPoint x="440" y="350" as="targetPoint" />
          </mxGeometry>
        </mxCell>
        <mxCell id="JeP-QaO6aETw0RSEIs47-10" value="4: [se não] retornaVazio" style="html=1;verticalAlign=bottom;endArrow=open;dashed=1;endSize=8;curved=0;rounded=0;exitX=0.392;exitY=1.15;exitDx=0;exitDy=0;exitPerimeter=0;" edge="1" parent="1">
          <mxGeometry relative="1" as="geometry">
            <mxPoint x="727" y="400" as="sourcePoint" />
            <mxPoint x="440" y="400" as="targetPoint" />
            <Array as="points">
              <mxPoint x="580" y="400" />
            </Array>
          </mxGeometry>
        </mxCell>
        <mxCell id="JeP-QaO6aETw0RSEIs47-11" value="" style="rounded=0;whiteSpace=wrap;html=1;rotation=90;" vertex="1" parent="1">
          <mxGeometry x="377" y="496" width="97" height="20" as="geometry" />
        </mxCell>
        <mxCell id="JeP-QaO6aETw0RSEIs47-12" value="5: cadastrarCliente(dados)" style="html=1;verticalAlign=bottom;endArrow=block;curved=0;rounded=0;entryX=0;entryY=1;entryDx=0;entryDy=0;exitX=0;exitY=0;exitDx=0;exitDy=0;" edge="1" parent="1" source="JeP-QaO6aETw0RSEIs47-11" target="JeP-QaO6aETw0RSEIs47-13">
          <mxGeometry width="80" relative="1" as="geometry">
            <mxPoint x="440" y="460" as="sourcePoint" />
            <mxPoint x="725" y="459.5" as="targetPoint" />
          </mxGeometry>
        </mxCell>
        <mxCell id="JeP-QaO6aETw0RSEIs47-13" value="" style="rounded=0;whiteSpace=wrap;html=1;rotation=90;" vertex="1" parent="1">
          <mxGeometry x="691.5" y="496" width="97" height="20" as="geometry" />
        </mxCell>
        <mxCell id="JeP-QaO6aETw0RSEIs47-15" value="" style="html=1;points=[[0,0,0,0,5],[0,1,0,0,-5],[1,0,0,0,5],[1,1,0,0,-5]];perimeter=orthogonalPerimeter;outlineConnect=0;targetShapes=umlLifeline;portConstraint=eastwest;newEdgeStyle={&quot;curved&quot;:0,&quot;rounded&quot;:0};" vertex="1" parent="1">
          <mxGeometry x="750" y="490" width="10" height="40" as="geometry" />
        </mxCell>
        <mxCell id="JeP-QaO6aETw0RSEIs47-16" value="6: cadastrarDados" style="html=1;align=left;spacingLeft=2;endArrow=block;rounded=0;edgeStyle=orthogonalEdgeStyle;curved=0;rounded=0;" edge="1" target="JeP-QaO6aETw0RSEIs47-15" parent="1">
          <mxGeometry relative="1" as="geometry">
            <mxPoint x="755" y="470" as="sourcePoint" />
            <Array as="points">
              <mxPoint x="785" y="500" />
            </Array>
          </mxGeometry>
        </mxCell>
        <mxCell id="JeP-QaO6aETw0RSEIs47-17" value="" style="rounded=0;whiteSpace=wrap;html=1;rotation=90;" vertex="1" parent="1">
          <mxGeometry x="1025.75" y="565.75" width="68.5" height="20" as="geometry" />
        </mxCell>
        <mxCell id="JeP-QaO6aETw0RSEIs47-18" value="7: criarCadastro" style="html=1;verticalAlign=bottom;endArrow=block;curved=0;rounded=0;exitX=0.902;exitY=0.1;exitDx=0;exitDy=0;entryX=0.119;entryY=1.175;entryDx=0;entryDy=0;entryPerimeter=0;exitPerimeter=0;" edge="1" parent="1">
          <mxGeometry x="0.0039" width="80" relative="1" as="geometry">
            <mxPoint x="750" y="549.954" as="sourcePoint" />
            <mxPoint x="1050" y="548.0029999999999" as="targetPoint" />
            <Array as="points" />
            <mxPoint as="offset" />
          </mxGeometry>
        </mxCell>
        <mxCell id="JeP-QaO6aETw0RSEIs47-19" value="9: cadastroCriado" style="html=1;verticalAlign=bottom;endArrow=open;dashed=1;endSize=8;curved=0;rounded=0;exitX=0.392;exitY=1.15;exitDx=0;exitDy=0;exitPerimeter=0;" edge="1" parent="1">
          <mxGeometry relative="1" as="geometry">
            <mxPoint x="417" y="630" as="sourcePoint" />
            <mxPoint x="130" y="630" as="targetPoint" />
            <Array as="points">
              <mxPoint x="270" y="630" />
            </Array>
          </mxGeometry>
        </mxCell>
        <mxCell id="JeP-QaO6aETw0RSEIs47-20" value="" style="rounded=0;whiteSpace=wrap;html=1;rotation=90;" vertex="1" parent="1">
          <mxGeometry x="393.5" y="596.5" width="70" height="20" as="geometry" />
        </mxCell>
        <mxCell id="JeP-QaO6aETw0RSEIs47-22" value="8:&amp;nbsp; retornaCadastroOK" style="html=1;verticalAlign=bottom;endArrow=open;dashed=1;endSize=8;curved=0;rounded=0;exitX=0.392;exitY=1.15;exitDx=0;exitDy=0;exitPerimeter=0;entryX=0.362;entryY=-0.09;entryDx=0;entryDy=0;entryPerimeter=0;" edge="1" parent="1" target="JeP-QaO6aETw0RSEIs47-20">
          <mxGeometry relative="1" as="geometry">
            <mxPoint x="1047" y="600" as="sourcePoint" />
            <mxPoint x="760" y="600" as="targetPoint" />
            <Array as="points">
              <mxPoint x="900" y="600" />
            </Array>
          </mxGeometry>
        </mxCell>
      </root>
    </mxGraphModel>
  </diagram>
</mxfile>
